<svg width="24" height="25" viewBox="0 0 24 25" fill="none" xmlns="http://www.w3.org/2000/svg">
<g clip-path="url(#clip0_2_401)" filter="url(#filter0_d_2_401)">
<path d="M7.64062 16.1719V5.66016H4.37109V16.1719H7.64062ZM5.98828 4.25391C7.04297 4.25391 7.88672 3.375 7.88672 2.32032C7.88672 1.30079 7.04297 0.457031 5.98828 0.457031C4.96875 0.457031 4.125 1.30079 4.125 2.32032C4.125 3.375 4.96875 4.25391 5.98828 4.25391ZM19.8398 16.1719H19.875V10.4063C19.875 7.59375 19.2422 5.41407 15.9375 5.41407C14.3555 5.41407 13.3008 6.29297 12.8438 7.10157H12.8086V5.66016H9.67969V16.1719H12.9492V10.9688C12.9492 9.59766 13.1953 8.29688 14.8828 8.29688C16.5703 8.29688 16.6055 9.84375 16.6055 11.0743V16.1719H19.8398Z" fill="#292F36"/>
</g>
<defs>
<filter id="filter0_d_2_401" x="0" y="0" width="24" height="25" filterUnits="userSpaceOnUse" color-interpolation-filters="sRGB">
<feFlood flood-opacity="0" result="BackgroundImageFix"/>
<feColorMatrix in="SourceAlpha" type="matrix" values="0 0 0 0 0 0 0 0 0 0 0 0 0 0 0 0 0 0 127 0" result="hardAlpha"/>
<feOffset dy="4"/>
<feGaussianBlur stdDeviation="2"/>
<feComposite in2="hardAlpha" operator="out"/>
<feColorMatrix type="matrix" values="0 0 0 0 0 0 0 0 0 0 0 0 0 0 0 0 0 0 0.25 0"/>
<feBlend mode="normal" in2="BackgroundImageFix" result="effect1_dropShadow_2_401"/>
<feBlend mode="normal" in="SourceGraphic" in2="effect1_dropShadow_2_401" result="shape"/>
</filter>
<clipPath id="clip0_2_401">
<rect width="16" height="17" fill="white" transform="translate(4)"/>
</clipPath>
</defs>
</svg>
